<?xml version="1.0" encoding="iso-8859-1"?>
<!-- Generator: Adobe Illustrator 19.0.0, SVG Export Plug-In . SVG Version: 6.00 Build 0)  -->
<svg version="1.1" id="Capa_1" xmlns="http://www.w3.org/2000/svg" xmlns:xlink="http://www.w3.org/1999/xlink" x="0px" y="0px"
	 viewBox="0 0 512 512" style="enable-background:new 0 0 512 512;" xml:space="preserve">
<g>
	<g>
		<path class="outer" d="M485.781,44.653H275.47V19.47C275.47,8.734,266.737,0,256,0c-10.737,0-19.47,8.734-19.47,19.47v25.183H26.219
			c-10.753,0-19.501,8.748-19.501,19.501v28.167c0,10.753,8.748,19.501,19.501,19.501h4.438v287.571
			c0,11.049,8.987,20.036,20.036,20.036h90.457l-18.616,67.948c-2.843,10.38,3.253,21.081,13.634,23.923
			c10.353,2.836,21.084-3.282,23.921-13.634l8.755-31.955h174.312l8.755,31.955v0.001c2.842,10.375,13.54,16.479,23.921,13.633
			c10.379-2.841,16.478-13.543,13.634-23.922l-18.616-67.949h90.457c11.049,0,20.036-8.987,20.036-20.036V275.627
			c0-4.143-3.357-7.5-7.5-7.5c-4.143,0-7.5,3.357-7.5,7.5v123.768c0,2.776-2.259,5.035-5.035,5.035c-7.37,0-182.86,0-190.124,0
			c-4.143,0-7.5,3.357-7.5,7.5c0,4.143,3.357,7.5,7.5,7.5h59.293l8.57,31.282H172.954l8.57-31.282h54.657c4.143,0,7.5-3.357,7.5-7.5
			c0-4.143-3.357-7.5-7.5-7.5c-1.342,0-183.671,0-185.488,0c-2.776,0-5.035-2.259-5.035-5.035V111.823h420.684v128.802
			c0,4.143,3.357,7.5,7.5,7.5c4.143,0,7.5-3.357,7.5-7.5V111.823h4.438c10.753,0,19.501-8.748,19.501-19.501V64.154
			C505.282,53.401,496.534,44.653,485.781,44.653z M355.296,419.429L355.296,419.429l19.702,71.914
			c0.653,2.383-0.745,4.837-3.13,5.49c-2.401,0.653-4.84-0.76-5.489-3.129l-20.35-74.275H355.296z M165.971,419.431l-20.35,74.273
			c-0.65,2.377-3.117,3.78-5.49,3.13c-2.378-0.652-3.783-3.102-3.129-5.491l19.702-71.912H165.971z M251.532,19.47L251.532,19.47
			c0-2.464,2.005-4.469,4.469-4.469c2.464,0,4.469,2.005,4.469,4.469v25.183h-8.938V19.47z M490.281,92.322
			c0,2.439-2.061,4.5-4.5,4.5c-7.059,0-452.402,0-459.561,0c-2.439,0-4.5-2.061-4.5-4.5V64.154c0-2.439,2.061-4.5,4.5-4.5
			c19.493,0,448.061,0,459.561,0c2.439,0,4.5,2.061,4.5,4.5V92.322z"/>
	</g>
</g>
<g>
	<g>
		<path class="graph" d="M416.462,354.362h-11.737V147.758c0-6.176-5.024-11.201-11.201-11.201h-33.148c-6.176,0-11.201,5.024-11.201,11.201V182.9
			h-29.349c-6.176,0-11.201,5.024-11.201,11.2v29.608h-29.349c-6.176,0-11.201,5.024-11.201,11.201v27.544H238.73
			c-6.176,0-11.201,5.024-11.201,11.2v80.71h-11.738c-4.143,0-7.5,3.357-7.5,7.5c0,4.143,3.357,7.5,7.5,7.5
			c41.239,0,155.342,0,200.671,0c4.143,0,7.5-3.357,7.5-7.5C423.963,357.719,420.606,354.362,416.462,354.362z M268.079,354.362
			H242.53v-76.909h25.548V354.362z M308.628,354.362h-25.548c0-10.534,0-101.949,0-115.654h25.548V354.362z M349.176,354.362
			h-25.548c0-4.509,0-146.466,0-156.462h25.548V354.362z M389.725,354.362h-25.548c0-7.382,0-195.417,0-202.804h25.548V354.362z"/>
	</g>
</g>
<g>
	<g>
		<path class="content-path line1" d="M162.82,152.933h-39.513c-4.143,0-7.5,3.358-7.5,7.5s3.357,7.5,7.5,7.5h39.513c4.143,0,7.5-3.358,7.5-7.5
			S166.963,152.933,162.82,152.933z"/>
	</g>
</g>
<g>
	<g>
		<path class="content-path line2" d="M182.576,190.086H103.55c-4.143,0-7.5,3.357-7.5,7.5c0,4.143,3.357,7.5,7.5,7.5h79.026c4.143,0,7.5-3.357,7.5-7.5
			C190.076,193.443,186.719,190.086,182.576,190.086z"/>
	</g>
</g>
<g>
	<g>
		<path class="content-path line3" d="M182.576,227.238H103.55c-4.143,0-7.5,3.357-7.5,7.5c0,4.143,3.357,7.5,7.5,7.5h79.026c4.143,0,7.5-3.357,7.5-7.5
			C190.076,230.595,186.719,227.238,182.576,227.238z"/>
	</g>
</g>
<g>
	<g>
		<path class="content-path line4" d="M182.576,264.391H103.55c-4.143,0-7.5,3.357-7.5,7.5c0,4.143,3.357,7.5,7.5,7.5h79.026c4.143,0,7.5-3.357,7.5-7.5
			C190.076,267.748,186.719,264.391,182.576,264.391z"/>
	</g>
</g>
</svg>
