<?xml version="1.0" encoding="iso-8859-1"?>
<!-- Generator: Adobe Illustrator 19.0.0, SVG Export Plug-In . SVG Version: 6.00 Build 0)  -->
<svg version="1.1" id="Capa_1" xmlns="http://www.w3.org/2000/svg" xmlns:xlink="http://www.w3.org/1999/xlink" x="0px" y="0px"
	 viewBox="0 0 480.108 480.108" style="enable-background:new 0 0 480.108 480.108;" xml:space="preserve">
<g>
	<g>
		<path class="wallet-path wallet-line" d="M199.312,0H24.796C11.138,0.016,0.07,11.084,0.054,24.742v126.516C0.07,164.916,11.138,175.984,24.796,176h174.516
			c13.658-0.016,24.726-11.084,24.742-24.742V24.742C224.038,11.084,212.97,0.016,199.312,0z M208.054,112h-32
			c-8.832-0.01-15.99-7.168-16-16V80c0.01-8.832,7.168-15.99,16-16h32V112z M208.054,48h-32c-17.665,0.019-31.981,14.335-32,32v16
			c0.019,17.665,14.335,31.981,32,32h32v23.258c-0.005,4.826-3.916,8.737-8.742,8.742H24.796c-4.826-0.005-8.737-3.916-8.742-8.742
			V24.742c0.005-4.826,3.916-8.737,8.742-8.742h174.516c4.826,0.005,8.737,3.916,8.742,8.742V48z"/>
	</g>
</g>
<g>
	<g>
		<rect class="wallet-path wallet-square1" x="176.054" y="80" width="16" height="16"/>
	</g>
</g>
<g>
	<g>
		<rect class="wallet-path wallet-square2" x="32.054" y="64" width="16" height="16"/>
	</g>
</g>
<g>
	<g>
		<rect class="wallet-path wallet-square3" x="32.054" y="96" width="16" height="16"/>
	</g>
</g>
<g>
	<g>
		<rect class="wallet-path wallet-square4" x="32.054" y="32" width="16" height="16"/>
	</g>
</g>
<g>
	<g>
		<rect class="wallet-path wallet-square5" x="32.054" y="128" width="16" height="16"/>
	</g>
</g>
<g>
	<g>
		<path class="cart-path cart-top" d="M394.775,272.479c-0.872-0.316-1.793-0.478-2.721-0.479h-192c-2.591-0.002-5.021,1.253-6.52,3.367
			c-1.5,2.109-1.886,4.814-1.035,7.258l33.391,96c1.116,3.218,4.149,5.375,7.555,5.375h123.699c3.364,0,6.369-2.104,7.52-5.266
			l34.91-96C401.08,278.577,398.932,273.986,394.775,272.479z M351.542,368h-112.41l-27.824-80h169.324L351.542,368z"/>
	</g>
</g>
<g>
	<g>
		<path class="cart-path cart-bottom" d="M440.054,248c-3.352-0.001-6.349,2.089-7.508,5.234L378.476,400H216.054v16h40v17.474
			c-12.497,4.418-19.046,18.131-14.627,30.627c4.418,12.497,18.131,19.046,30.627,14.627c12.497-4.418,19.046-18.131,14.627-30.627
			c-2.416-6.835-7.793-12.211-14.627-14.627V416h72v17.474c-12.497,4.418-19.046,18.131-14.627,30.627s18.131,19.046,30.627,14.627
			c12.497-4.418,19.046-18.131,14.627-30.627c-2.416-6.835-7.793-12.211-14.627-14.627V416h24c3.352,0.001,6.349-2.089,7.508-5.234
			L445.632,264h34.422v-16H440.054z M264.054,464c-4.418,0-8-3.582-8-8s3.582-8,8-8s8,3.582,8,8
			C272.05,460.416,268.47,463.996,264.054,464z M352.054,464c-4.418,0-8-3.582-8-8s3.582-8,8-8s8,3.582,8,8
			C360.05,460.416,356.47,463.996,352.054,464z"/>
	</g>
</g>
<g>
	<g>
		<rect class="cart-path cart-line1" x="248.054" y="304" width="96" height="16"/>
	</g>
</g>
<g>
	<g>
		<rect class="cart-path cart-line2" x="256.054" y="336" width="80" height="16"/>
	</g>
</g>
<g>
	<g>
		<path class="money" d="M304.054,176c-22.081,0.026-39.974,17.919-40,40c0,22.091,17.909,40,40,40c22.091,0,40-17.909,40-40
			S326.145,176,304.054,176z M304.054,240c-13.255,0-24-10.745-24-24s10.745-24,24-24c13.249,0.014,23.986,10.751,24,24
			C328.054,229.255,317.309,240,304.054,240z"/>
	</g>
</g>
<g>
	<g>
		<path class="topRightArrow" d="M322.398,122.344l-10.344,10.344V88c0.001-4.417-3.579-7.999-7.996-8c-0.001,0-0.003,0-0.004,0h-64v16h56v36.688
			l-10.344-10.344l-11.312,11.313l24,24c2.288,2.289,5.729,2.973,8.719,1.734c0.958-0.42,1.822-1.027,2.542-1.786l0.051,0.051l24-24
			L322.398,122.344z"/>
	</g>
</g>
<g>
	<g>
		<path class="bottomLeftArrow" d="M40.054,352V219.313l10.344,10.344l11.312-11.313l-24-24c-3.122-3.124-8.186-3.125-11.309-0.003
			c-0.001,0.001-0.002,0.002-0.003,0.003l-24,24l11.313,11.312l10.344-10.344V360c-0.001,4.417,3.579,7.999,7.996,8
			c0.001,0,0.003,0,0.004,0h144v-16H40.054z"/>
	</g>
</g>
</svg>
